<?xml version="1.0" standalone="no"?>
<!DOCTYPE svg PUBLIC "-//W3C//DTD SVG 20010904//EN"
 "http://www.w3.org/TR/2001/REC-SVG-20010904/DTD/svg10.dtd">
<svg version="1.0" xmlns="http://www.w3.org/2000/svg"
 width="512.000000pt" height="512.000000pt" viewBox="0 0 512.000000 512.000000"
 preserveAspectRatio="xMidYMid meet">
<metadata>
Created by potrace 1.16, written by Peter Selinger 2001-2019
</metadata>
<g transform="translate(0.000000,512.000000) scale(0.100000,-0.100000)"
fill="#000000" stroke="none">
<path d="M3823 4905 c-167 -44 -333 -76 -508 -97 -148 -17 -495 -15 -647 5
-158 21 -258 21 -379 1 -300 -51 -590 -227 -774 -473 -118 -157 -182 -312
-205 -495 -22 -170 -4 -429 45 -651 6 -27 3 -32 -30 -50 -148 -79 -180 -297
-63 -430 47 -53 80 -72 162 -95 59 -17 60 -17 78 -70 43 -127 138 -282 245
-401 55 -61 188 -162 276 -209 l77 -42 0 -83 0 -83 -307 -5 c-245 -3 -320 -7
-365 -20 -315 -90 -568 -293 -698 -562 -81 -166 -82 -175 -87 -550 -4 -291 -3
-334 12 -360 34 -65 -117 -60 1890 -63 1278 -2 1841 0 1867 8 20 6 46 22 57
37 20 25 21 38 21 348 0 290 -2 330 -20 401 -83 323 -394 632 -741 735 -68 20
-101 22 -386 26 l-313 5 0 84 0 84 53 26 c134 68 287 201 389 338 60 80 137
227 159 303 11 38 15 42 53 47 193 29 311 230 236 404 -23 52 -89 123 -135
144 -28 13 -29 18 -15 68 45 154 77 604 61 841 l-11 160 79 77 c84 82 161 191
161 227 0 12 -9 30 -21 41 -19 17 -24 17 -97 2 -42 -8 -78 -15 -78 -14 -1 0
27 37 63 81 68 84 133 205 133 247 0 29 -29 58 -56 57 -10 -1 -92 -21 -181
-44z m70 -122 c-53 -86 -182 -217 -256 -261 -32 -20 -43 -51 -27 -81 14 -27
47 -27 160 -1 129 29 132 28 76 -29 -26 -27 -65 -61 -86 -77 -53 -40 -60 -59
-50 -140 14 -106 11 -504 -4 -649 -8 -71 -22 -173 -31 -225 -19 -102 -17 -102
-55 1 -66 182 -216 335 -386 394 -144 50 -289 44 -533 -22 l-134 -37 -86 23
c-250 68 -360 81 -489 57 -234 -42 -419 -211 -503 -459 -31 -93 -29 -94 -54
63 -22 140 -30 368 -16 480 22 175 89 333 201 474 148 185 351 321 573 382
112 31 320 43 437 25 123 -19 442 -25 601 -12 176 15 397 52 544 90 141 37
139 37 118 4z m-1631 -1157 c40 -8 109 -26 153 -40 106 -34 186 -34 301 0 143
43 203 53 300 54 156 0 260 -43 369 -154 79 -80 140 -190 172 -311 28 -109 26
-380 -5 -495 -96 -357 -364 -631 -717 -736 -128 -37 -338 -45 -475 -16 -312
64 -565 261 -705 547 -85 173 -100 243 -100 465 0 166 2 193 23 260 38 120 89
207 167 285 136 136 305 182 517 141z m-844 -618 c14 -37 22 -88 27 -170 l6
-118 -27 10 c-94 36 -148 145 -115 233 11 27 69 97 81 97 4 0 17 -24 28 -52z
m2343 39 c9 -7 28 -30 43 -51 50 -75 26 -190 -52 -240 -43 -28 -78 -37 -75
-19 2 7 5 59 8 115 6 105 31 208 50 208 5 0 17 -6 26 -13z m-843 -1337 c-3
-97 -8 -124 -30 -170 -38 -81 -89 -134 -166 -172 -89 -44 -197 -51 -284 -18
-79 29 -150 96 -190 177 -30 62 -33 74 -36 195 -3 70 0 128 4 128 5 0 51 -9
102 -19 186 -39 360 -36 530 8 81 21 76 29 70 -129z m-1043 -117 c72 -337 363
-584 687 -583 200 1 401 97 529 254 63 77 135 218 151 297 l12 61 206 -5 c170
-4 215 -8 265 -24 259 -88 482 -282 590 -516 60 -129 65 -168 65 -499 l0 -298
-27 -1 c-24 -1 -298 0 -385 1 l-28 0 0 230 0 231 -25 24 c-29 30 -36 31 -66 6
-24 -19 -24 -21 -27 -252 -2 -129 -5 -235 -7 -237 -3 -3 -2209 -6 -2422 -3
l-83 1 0 229 c0 126 -3 237 -6 246 -11 27 -53 38 -80 20 l-24 -15 0 -240 c0
-185 -3 -240 -12 -241 -7 0 -107 0 -223 0 l-210 0 -3 291 c-2 264 0 300 18
377 74 312 378 599 701 662 24 5 124 9 221 10 l178 1 5 -27z m249 -37 c49
-171 193 -297 375 -327 219 -36 456 123 511 344 l12 47 64 0 63 0 -15 -52
c-62 -217 -240 -394 -445 -443 -296 -69 -603 119 -693 424 -9 30 -16 58 -16
63 0 4 28 8 63 8 l62 0 19 -64z"/>
</g>
</svg>
