<svg xmlns="http://www.w3.org/2000/svg" viewBox="0 0 170 44" role="img" fill="#000000"><title>Timberland</title><g transform="translate(8, 6)"><circle cx="16" cy="16" r="14" fill="none" stroke="#000000" stroke-width="2"/><path d="M16 8c-3 3-5 7-5 11 0 4 2 6 5 9 3-3 5-5 5-9 0-4-2-8-5-11z" fill="#000000"/><path d="M11 15c-3 1-5 4-5 6 3 0 5-1 6-2M21 15c3 1 5 4 5 6-3 0-5-1-6-2M13 21c-2 1-4 3-4 5 2 0 4-1 5-2M19 21c2 1 4 3 4 5-2 0-4-1-5-2" stroke="#000000" stroke-width="1.2" stroke-linecap="round"/></g><text x="48" y="27" font-family="-apple-system, BlinkMacSystemFont, 'Segoe UI', Roboto, sans-serif" font-weight="800" font-size="17" letter-spacing="0.5" fill="#000000">Timberland</text></svg>