<svg xmlns="http://www.w3.org/2000/svg" viewBox="0 0 140 44" role="img" fill="#000000"><title>Vans</title><path d="M12 10h56v5.5H35.8L46.2 34h-8.1L27.6 15.5h-5.4L15.3 34H7.2L12 10z" fill="#000000"/><path d="M47.8 15.5h7.2l6.8 18.5h-7l-1.3-4.2h-6.4l-1.3 4.2h-4.8l6.8-18.5zm3 4.8l-2 6.5h4.2l-2.2-6.5z" fill="#000000"/><path d="M64 15.5h6.6l7.8 11.2V15.5H85v18.5h-6.4l-8.2-11.8v11.8H64V15.5z" fill="#000000"/><path d="M96.5 15.2c5.8 0 9.8 2.6 9.8 7.2 0 4.8-3.8 6.4-7.5 7.4-2.8.8-4.5 1.2-4.5 2.6 0 1.2 1.2 2 3.2 2 2.2 0 4.8-.8 6.8-2.2v4.8c-2.2 1.2-5 1.8-7.5 1.8-6.2 0-10.2-2.8-10.2-7.5 0-4.6 3.6-6.2 7.4-7.2 3-.8 4.6-1.3 4.6-2.6 0-1-.9-1.8-2.8-1.8-2 0-4.2.8-6 1.8v-4.8c2-1 4.5-1.5 6.7-1.5z" fill="#000000"/></svg>